<?xml version="1.0" encoding="UTF-8"?>
<!DOCTYPE svg PUBLIC "-//W3C//DTD SVG 1.1//EN" "http://www.w3.org/Graphics/SVG/1.1/DTD/svg11.dtd">
<svg xmlns="http://www.w3.org/2000/svg" version="1.1" width="1005px" height="350px" style="shape-rendering:geometricPrecision; text-rendering:geometricPrecision; image-rendering:optimizeQuality; fill-rule:evenodd; clip-rule:evenodd" xmlns:xlink="http://www.w3.org/1999/xlink">
<g><path style="opacity:0.004" fill="#000000" d="M 92.5,-0.5 C 365.833,-0.5 639.167,-0.5 912.5,-0.5C 912.5,0.833333 912.5,2.16667 912.5,3.5C 639.167,3.5 365.833,3.5 92.5,3.5C 92.5,2.16667 92.5,0.833333 92.5,-0.5 Z"/></g>
<g><path style="opacity:1" fill="#d6d6d6" d="M 92.5,3.5 C 365.833,3.5 639.167,3.5 912.5,3.5C 943.167,3.5 973.833,3.5 1004.5,3.5C 1004.5,4.83333 1004.5,6.16667 1004.5,7.5C 669.833,7.5 335.167,7.5 0.5,7.5C 0.5,6.16667 0.5,4.83333 0.5,3.5C 31.1667,3.5 61.8333,3.5 92.5,3.5 Z"/></g>
<g><path style="opacity:1" fill="#f6f6f6" d="M 0.5,7.5 C 335.167,7.5 669.833,7.5 1004.5,7.5C 1004.5,120.167 1004.5,232.833 1004.5,345.5C 669.833,345.5 335.167,345.5 0.5,345.5C 0.5,232.833 0.5,120.167 0.5,7.5 Z"/></g>
<g><path style="opacity:1" fill="#f0f0f0" d="M 92.5,11.5 C 365.833,11.5 639.167,11.5 912.5,11.5C 912.5,13.1667 912.5,14.8333 912.5,16.5C 915.5,16.5 918.5,16.5 921.5,16.5C 921.5,17.8333 921.5,19.1667 921.5,20.5C 924.167,20.5 926.833,20.5 929.5,20.5C 929.5,21.8333 929.5,23.1667 929.5,24.5C 930.833,24.5 932.167,24.5 933.5,24.5C 933.5,25.8333 933.5,27.1667 933.5,28.5C 934.833,28.5 936.167,28.5 937.5,28.5C 937.5,29.8333 937.5,31.1667 937.5,32.5C 939.167,32.5 940.833,32.5 942.5,32.5C 942.5,33.8333 942.5,35.1667 942.5,36.5C 943.833,36.5 945.167,36.5 946.5,36.5C 946.5,39.5 946.5,42.5 946.5,45.5C 947.833,45.5 949.167,45.5 950.5,45.5C 950.5,74.5 950.5,103.5 950.5,132.5C 949.167,132.5 947.833,132.5 946.5,132.5C 946.5,135.5 946.5,138.5 946.5,141.5C 945.167,141.5 943.833,141.5 942.5,141.5C 942.5,144.167 942.5,146.833 942.5,149.5C 940.833,149.5 939.167,149.5 937.5,149.5C 937.5,150.833 937.5,152.167 937.5,153.5C 934.833,153.5 932.167,153.5 929.5,153.5C 929.5,154.833 929.5,156.167 929.5,157.5C 928.167,157.5 926.833,157.5 925.5,157.5C 925.5,158.833 925.5,160.167 925.5,161.5C 919.833,161.5 914.167,161.5 908.5,161.5C 908.5,163.167 908.5,164.833 908.5,166.5C 637.833,166.5 367.167,166.5 96.5,166.5C 96.5,164.833 96.5,163.167 96.5,161.5C 90.8333,161.5 85.1667,161.5 79.5,161.5C 79.5,160.167 79.5,158.833 79.5,157.5C 78.1667,157.5 76.8333,157.5 75.5,157.5C 75.5,156.167 75.5,154.833 75.5,153.5C 72.8333,153.5 70.1667,153.5 67.5,153.5C 67.5,152.167 67.5,150.833 67.5,149.5C 65.8333,149.5 64.1667,149.5 62.5,149.5C 62.5,146.833 62.5,144.167 62.5,141.5C 61.1667,141.5 59.8333,141.5 58.5,141.5C 58.5,138.5 58.5,135.5 58.5,132.5C 57.1667,132.5 55.8333,132.5 54.5,132.5C 54.5,103.5 54.5,74.5 54.5,45.5C 55.8333,45.5 57.1667,45.5 58.5,45.5C 58.5,42.5 58.5,39.5 58.5,36.5C 59.8333,36.5 61.1667,36.5 62.5,36.5C 62.5,35.1667 62.5,33.8333 62.5,32.5C 64.1667,32.5 65.8333,32.5 67.5,32.5C 67.5,31.1667 67.5,29.8333 67.5,28.5C 68.8333,28.5 70.1667,28.5 71.5,28.5C 71.5,27.1667 71.5,25.8333 71.5,24.5C 72.8333,24.5 74.1667,24.5 75.5,24.5C 75.5,23.1667 75.5,21.8333 75.5,20.5C 78.1667,20.5 80.8333,20.5 83.5,20.5C 83.5,19.1667 83.5,17.8333 83.5,16.5C 86.5,16.5 89.5,16.5 92.5,16.5C 92.5,14.8333 92.5,13.1667 92.5,11.5 Z"/></g>
<g><path style="opacity:1" fill="#f8f8f8" d="M 912.5,28.5 C 639.167,28.5 365.833,28.5 92.5,28.5C 92.5,27.1667 92.5,25.8333 92.5,24.5C 365.833,24.5 639.167,24.5 912.5,24.5C 912.5,25.8333 912.5,27.1667 912.5,28.5 Z"/></g>
<g><path style="opacity:1" fill="#fdfdfd" d="M 92.5,28.5 C 365.833,28.5 639.167,28.5 912.5,28.5C 915.5,28.5 918.5,28.5 921.5,28.5C 921.5,29.8333 921.5,31.1667 921.5,32.5C 922.833,32.5 924.167,32.5 925.5,32.5C 925.5,33.8333 925.5,35.1667 925.5,36.5C 926.833,36.5 928.167,36.5 929.5,36.5C 929.5,38.1667 929.5,39.8333 929.5,41.5C 930.833,41.5 932.167,41.5 933.5,41.5C 933.5,42.8333 933.5,44.1667 933.5,45.5C 933.5,71.8333 933.5,98.1667 933.5,124.5C 932.167,124.5 930.833,124.5 929.5,124.5C 929.5,127.167 929.5,129.833 929.5,132.5C 928.167,132.5 926.833,132.5 925.5,132.5C 925.5,133.833 925.5,135.167 925.5,136.5C 924.167,136.5 922.833,136.5 921.5,136.5C 921.5,138.167 921.5,139.833 921.5,141.5C 918.5,141.5 915.5,141.5 912.5,141.5C 639.167,141.5 365.833,141.5 92.5,141.5C 89.5,141.5 86.5,141.5 83.5,141.5C 83.5,139.833 83.5,138.167 83.5,136.5C 82.1667,136.5 80.8333,136.5 79.5,136.5C 79.5,135.167 79.5,133.833 79.5,132.5C 78.1667,132.5 76.8333,132.5 75.5,132.5C 75.5,129.833 75.5,127.167 75.5,124.5C 74.1667,124.5 72.8333,124.5 71.5,124.5C 71.5,98.1667 71.5,71.8333 71.5,45.5C 71.5,44.1667 71.5,42.8333 71.5,41.5C 72.8333,41.5 74.1667,41.5 75.5,41.5C 75.5,39.8333 75.5,38.1667 75.5,36.5C 76.8333,36.5 78.1667,36.5 79.5,36.5C 79.5,35.1667 79.5,33.8333 79.5,32.5C 80.8333,32.5 82.1667,32.5 83.5,32.5C 83.5,31.1667 83.5,29.8333 83.5,28.5C 86.5,28.5 89.5,28.5 92.5,28.5 Z"/></g>
<g><path style="opacity:1" fill="#e9e9e9" d="M 71.5,45.5 C 71.5,71.8333 71.5,98.1667 71.5,124.5C 72.8333,124.5 74.1667,124.5 75.5,124.5C 75.5,127.167 75.5,129.833 75.5,132.5C 76.8333,132.5 78.1667,132.5 79.5,132.5C 79.5,133.833 79.5,135.167 79.5,136.5C 80.8333,136.5 82.1667,136.5 83.5,136.5C 83.5,138.167 83.5,139.833 83.5,141.5C 86.5,141.5 89.5,141.5 92.5,141.5C 92.5,142.833 92.5,144.167 92.5,145.5C 365.833,145.5 639.167,145.5 912.5,145.5C 912.5,144.167 912.5,142.833 912.5,141.5C 915.5,141.5 918.5,141.5 921.5,141.5C 921.5,139.833 921.5,138.167 921.5,136.5C 922.833,136.5 924.167,136.5 925.5,136.5C 925.5,135.167 925.5,133.833 925.5,132.5C 926.833,132.5 928.167,132.5 929.5,132.5C 929.5,129.833 929.5,127.167 929.5,124.5C 930.833,124.5 932.167,124.5 933.5,124.5C 933.5,98.1667 933.5,71.8333 933.5,45.5C 934.833,45.5 936.167,45.5 937.5,45.5C 937.5,49.5 937.5,53.5 937.5,57.5C 939.167,57.5 940.833,57.5 942.5,57.5C 942.5,79.8333 942.5,102.167 942.5,124.5C 940.833,124.5 939.167,124.5 937.5,124.5C 937.5,127.167 937.5,129.833 937.5,132.5C 936.167,132.5 934.833,132.5 933.5,132.5C 933.5,135.5 933.5,138.5 933.5,141.5C 932.167,141.5 930.833,141.5 929.5,141.5C 929.5,142.833 929.5,144.167 929.5,145.5C 928.167,145.5 926.833,145.5 925.5,145.5C 925.5,146.833 925.5,148.167 925.5,149.5C 922.833,149.5 920.167,149.5 917.5,149.5C 917.5,150.833 917.5,152.167 917.5,153.5C 640.833,153.5 364.167,153.5 87.5,153.5C 87.5,152.167 87.5,150.833 87.5,149.5C 84.8333,149.5 82.1667,149.5 79.5,149.5C 79.5,148.167 79.5,146.833 79.5,145.5C 78.1667,145.5 76.8333,145.5 75.5,145.5C 75.5,144.167 75.5,142.833 75.5,141.5C 74.1667,141.5 72.8333,141.5 71.5,141.5C 71.5,138.5 71.5,135.5 71.5,132.5C 70.1667,132.5 68.8333,132.5 67.5,132.5C 67.5,129.833 67.5,127.167 67.5,124.5C 65.8333,124.5 64.1667,124.5 62.5,124.5C 62.5,102.167 62.5,79.8333 62.5,57.5C 64.1667,57.5 65.8333,57.5 67.5,57.5C 67.5,53.5 67.5,49.5 67.5,45.5C 68.8333,45.5 70.1667,45.5 71.5,45.5 Z"/></g>
<g><path style="opacity:1" fill="#9d9e9d" d="M 875.5,57.5 C 875.5,58.8333 875.5,60.1667 875.5,61.5C 874.167,61.5 872.833,61.5 871.5,61.5C 871.5,60.1667 871.5,58.8333 871.5,57.5C 872.833,57.5 874.167,57.5 875.5,57.5 Z"/></g>
<g><path style="opacity:1" fill="#606060" d="M 875.5,57.5 C 876.833,57.5 878.167,57.5 879.5,57.5C 879.5,58.8333 879.5,60.1667 879.5,61.5C 880.833,61.5 882.167,61.5 883.5,61.5C 883.5,63.1667 883.5,64.8333 883.5,66.5C 880.833,66.5 878.167,66.5 875.5,66.5C 875.5,64.8333 875.5,63.1667 875.5,61.5C 875.5,60.1667 875.5,58.8333 875.5,57.5 Z"/></g>
<g><path style="opacity:1" fill="#040404" d="M 396.5,64.5 C 397.833,64.5 399.167,64.5 400.5,64.5C 400.5,69.1667 400.5,73.8333 400.5,78.5C 406.167,78.5 411.833,78.5 417.5,78.5C 417.5,73.8333 417.5,69.1667 417.5,64.5C 418.833,64.5 420.167,64.5 421.5,64.5C 421.5,75.8333 421.5,87.1667 421.5,98.5C 420.167,98.5 418.833,98.5 417.5,98.5C 417.5,93.1667 417.5,87.8333 417.5,82.5C 411.833,82.5 406.167,82.5 400.5,82.5C 400.5,87.8333 400.5,93.1667 400.5,98.5C 399.167,98.5 397.833,98.5 396.5,98.5C 396.5,87.1667 396.5,75.8333 396.5,64.5 Z"/></g>
<g><path style="opacity:1" fill="#151515" d="M 434.5,71.5 C 434.217,70.7109 433.717,70.0442 433,69.5C 432.502,72.4816 432.335,75.4816 432.5,78.5C 432.473,85.1856 432.139,91.8523 431.5,98.5C 430.167,98.5 428.833,98.5 427.5,98.5C 428.449,87.1864 429.116,75.8531 429.5,64.5C 431.792,64.2436 433.959,64.5769 436,65.5C 438.25,74.2047 441.25,82.538 445,90.5C 448.343,81.9704 451.177,73.3037 453.5,64.5C 455.833,64.5 458.167,64.5 460.5,64.5C 461.087,75.8242 461.42,87.1575 461.5,98.5C 460.167,98.5 458.833,98.5 457.5,98.5C 457.018,88.8366 456.518,79.1699 456,69.5C 452.325,79.0247 449.158,88.6914 446.5,98.5C 445.167,98.5 443.833,98.5 442.5,98.5C 439.833,89.5 437.167,80.5 434.5,71.5 Z"/></g>
<g><path style="opacity:1" fill="#151515" d="M 485.5,71.5 C 485.217,70.7109 484.717,70.0442 484,69.5C 483.502,72.4816 483.335,75.4816 483.5,78.5C 483.473,85.1856 483.139,91.8523 482.5,98.5C 481.167,98.5 479.833,98.5 478.5,98.5C 479.449,87.1864 480.116,75.8531 480.5,64.5C 482.792,64.2436 484.959,64.5769 487,65.5C 489.25,74.2047 492.25,82.538 496,90.5C 499.343,81.9704 502.177,73.3037 504.5,64.5C 506.833,64.5 509.167,64.5 511.5,64.5C 512.087,75.8242 512.42,87.1575 512.5,98.5C 511.167,98.5 509.833,98.5 508.5,98.5C 508.018,88.8366 507.518,79.1699 507,69.5C 503.325,79.0247 500.158,88.6914 497.5,98.5C 496.167,98.5 494.833,98.5 493.5,98.5C 490.833,89.5 488.167,80.5 485.5,71.5 Z"/></g>
<g><path style="opacity:1" fill="#111111" d="M 527.5,64.5 C 529.604,64.2011 531.604,64.5344 533.5,65.5C 536.988,76.6308 540.655,87.6308 544.5,98.5C 542.833,98.5 541.167,98.5 539.5,98.5C 539.186,95.0534 538.352,91.7201 537,88.5C 532.667,87.1667 528.333,87.1667 524,88.5C 522.648,91.7201 521.814,95.0534 521.5,98.5C 519.712,98.7852 518.045,98.4519 516.5,97.5C 520.372,86.5504 524.039,75.5504 527.5,64.5 Z"/></g>
<g><path style="opacity:1" fill="#0a0a0a" d="M 549.5,64.5 C 553.514,64.3345 557.514,64.5012 561.5,65C 568.699,66.2192 571.199,70.3859 569,77.5C 567.891,79.8147 566.057,81.3147 563.5,82C 565.333,83.1667 566.833,84.6667 568,86.5C 568.945,90.494 569.778,94.494 570.5,98.5C 569.022,98.762 567.689,98.4287 566.5,97.5C 565.77,92.3735 563.77,87.8735 560.5,84C 558.19,83.5034 555.857,83.3367 553.5,83.5C 553.5,88.5 553.5,93.5 553.5,98.5C 552.167,98.5 550.833,98.5 549.5,98.5C 549.5,87.1667 549.5,75.8333 549.5,64.5 Z"/></g>
<g><path style="opacity:1" fill="#0a0a0a" d="M 576.5,64.5 C 577.833,64.5 579.167,64.5 580.5,64.5C 580.334,69.8437 580.501,75.1771 581,80.5C 584.787,75.044 588.954,69.8774 593.5,65C 595.167,64.3333 596.833,64.3333 598.5,65C 594.5,69.6667 590.5,74.3333 586.5,79C 590.833,85.3333 595.167,91.6667 599.5,98C 597.833,98.6667 596.167,98.6667 594.5,98C 591.189,92.5321 587.523,87.3655 583.5,82.5C 582.522,82.9767 581.689,83.6433 581,84.5C 580.501,89.1548 580.334,93.8215 580.5,98.5C 579.167,98.5 577.833,98.5 576.5,98.5C 576.5,87.1667 576.5,75.8333 576.5,64.5 Z"/></g>
<g><path style="opacity:1" fill="#000000" d="M 620.5,64.5 C 620.5,65.5 620.5,66.5 620.5,67.5C 615.968,67.1818 611.634,67.5151 607.5,68.5C 607.5,72.1667 607.5,75.8333 607.5,79.5C 611.833,79.5 616.167,79.5 620.5,79.5C 620.5,80.5 620.5,81.5 620.5,82.5C 616.167,82.5 611.833,82.5 607.5,82.5C 607.5,86.5 607.5,90.5 607.5,94.5C 611.97,95.4861 616.637,95.8195 621.5,95.5C 621.5,96.5 621.5,97.5 621.5,98.5C 615.5,98.5 609.5,98.5 603.5,98.5C 603.5,87.1667 603.5,75.8333 603.5,64.5C 609.167,64.5 614.833,64.5 620.5,64.5 Z"/></g>
<g><path style="opacity:1" fill="#0a0a0a" d="M 625.5,64.5 C 633.833,64.5 642.167,64.5 650.5,64.5C 650.5,65.8333 650.5,67.1667 650.5,68.5C 646.833,68.5 643.167,68.5 639.5,68.5C 639.5,78.5 639.5,88.5 639.5,98.5C 638.167,98.5 636.833,98.5 635.5,98.5C 635.5,88.5 635.5,78.5 635.5,68.5C 632.167,68.5 628.833,68.5 625.5,68.5C 625.5,67.1667 625.5,65.8333 625.5,64.5 Z"/></g>
<g><path style="opacity:1" fill="#181818" d="M 671.5,64.5 C 675.881,64.3718 680.215,64.7051 684.5,65.5C 684.5,66.8333 684.5,68.1667 684.5,69.5C 669.187,65.9803 662.687,71.9803 665,87.5C 667.207,92.5195 671.04,94.8528 676.5,94.5C 679.197,94.2973 681.864,93.964 684.5,93.5C 684.773,95.451 684.107,96.951 682.5,98C 666.162,99.9939 658.662,92.8272 660,76.5C 662.019,70.6498 665.852,66.6498 671.5,64.5 Z"/></g>
<g><path style="opacity:1" fill="#161616" d="M 698.5,64.5 C 707.222,63.2752 713.388,66.6085 717,74.5C 719.85,84.9834 716.683,92.8167 707.5,98C 697.914,100.057 691.414,96.5565 688,87.5C 685.653,77.0039 689.153,69.3372 698.5,64.5 Z"/></g>
<g><path style="opacity:1" fill="#151515" d="M 729.5,71.5 C 729.217,70.7109 728.717,70.0442 728,69.5C 727.502,72.4816 727.335,75.4816 727.5,78.5C 727.473,85.1856 727.139,91.8523 726.5,98.5C 725.167,98.5 723.833,98.5 722.5,98.5C 723.449,87.1864 724.116,75.8531 724.5,64.5C 726.792,64.2436 728.959,64.5769 731,65.5C 733.25,74.2047 736.25,82.538 740,90.5C 743.343,81.9704 746.177,73.3037 748.5,64.5C 750.833,64.5 753.167,64.5 755.5,64.5C 756.087,75.8242 756.42,87.1575 756.5,98.5C 755.167,98.5 753.833,98.5 752.5,98.5C 752.018,88.8366 751.518,79.1699 751,69.5C 747.325,79.0247 744.158,88.6914 741.5,98.5C 740.167,98.5 738.833,98.5 737.5,98.5C 734.833,89.5 732.167,80.5 729.5,71.5 Z"/></g>
<g><path style="opacity:1" fill="#a8aaaa" d="M 150.5,70.5 C 149.167,70.5 147.833,70.5 146.5,70.5C 146.5,69.1667 146.5,67.8333 146.5,66.5C 147.833,66.5 149.167,66.5 150.5,66.5C 150.5,67.8333 150.5,69.1667 150.5,70.5 Z"/></g>
<g><path style="opacity:1" fill="#9b9b9d" d="M 367.5,70.5 C 363.167,70.5 358.833,70.5 354.5,70.5C 354.5,69.1667 354.5,67.8333 354.5,66.5C 358.833,66.5 363.167,66.5 367.5,66.5C 367.5,67.8333 367.5,69.1667 367.5,70.5 Z"/></g>
<g><path style="opacity:1" fill="#5a5b5a" d="M 871.5,66.5 C 871.5,67.8333 871.5,69.1667 871.5,70.5C 870.167,70.5 868.833,70.5 867.5,70.5C 867.5,69.1667 867.5,67.8333 867.5,66.5C 868.833,66.5 870.167,66.5 871.5,66.5 Z"/></g>
<g><path style="opacity:1" fill="#5a5b5a" d="M 883.5,66.5 C 884.833,66.5 886.167,66.5 887.5,66.5C 887.5,67.8333 887.5,69.1667 887.5,70.5C 886.167,70.5 884.833,70.5 883.5,70.5C 883.5,69.1667 883.5,67.8333 883.5,66.5 Z"/></g>
<g><path style="opacity:1" fill="#464646" d="M 620.5,64.5 C 621.434,65.5676 621.768,66.901 621.5,68.5C 616.833,68.5 612.167,68.5 607.5,68.5C 611.634,67.5151 615.968,67.1818 620.5,67.5C 620.5,66.5 620.5,65.5 620.5,64.5 Z"/></g>
<g><path style="opacity:1" fill="#f4f4f4" d="M 553.5,67.5 C 559.77,65.8991 563.77,68.0658 565.5,74C 565.385,75.8951 564.718,77.5618 563.5,79C 560.312,80.3158 556.978,80.8158 553.5,80.5C 553.5,76.1667 553.5,71.8333 553.5,67.5 Z"/></g>
<g><path style="opacity:1" fill="#fafafa" d="M 698.5,68.5 C 710.597,68.2827 715.431,74.2827 713,86.5C 710.67,93.8287 705.837,96.3287 698.5,94C 696,92.8333 694.167,91 693,88.5C 692.333,83.8333 692.333,79.1667 693,74.5C 694.36,71.9774 696.193,69.9774 698.5,68.5 Z"/></g>
<g><path style="opacity:1" fill="#f6f6f7" d="M 354.5,70.5 C 358.833,70.5 363.167,70.5 367.5,70.5C 367.5,73.1667 367.5,75.8333 367.5,78.5C 363.167,78.5 358.833,78.5 354.5,78.5C 354.5,75.8333 354.5,73.1667 354.5,70.5 Z"/></g>
<g><path style="opacity:1" fill="#939493" d="M 862.5,70.5 C 862.5,71.8333 862.5,73.1667 862.5,74.5C 861.167,74.5 859.833,74.5 858.5,74.5C 858.5,73.1667 858.5,71.8333 858.5,70.5C 859.833,70.5 861.167,70.5 862.5,70.5 Z"/></g>
<g><path style="opacity:1" fill="#262726" d="M 862.5,70.5 C 864.167,70.5 865.833,70.5 867.5,70.5C 867.5,71.8333 867.5,73.1667 867.5,74.5C 865.833,74.5 864.167,74.5 862.5,74.5C 862.5,73.1667 862.5,71.8333 862.5,70.5 Z"/></g>
<g><path style="opacity:1" fill="#a9aaa9" d="M 867.5,70.5 C 868.833,70.5 870.167,70.5 871.5,70.5C 871.5,71.8333 871.5,73.1667 871.5,74.5C 870.167,74.5 868.833,74.5 867.5,74.5C 867.5,73.1667 867.5,71.8333 867.5,70.5 Z"/></g>
<g><path style="opacity:1" fill="#171717" d="M 871.5,66.5 C 872.833,66.5 874.167,66.5 875.5,66.5C 878.167,66.5 880.833,66.5 883.5,66.5C 883.5,67.8333 883.5,69.1667 883.5,70.5C 883.5,71.8333 883.5,73.1667 883.5,74.5C 882.167,74.5 880.833,74.5 879.5,74.5C 879.5,73.1667 879.5,71.8333 879.5,70.5C 876.833,70.5 874.167,70.5 871.5,70.5C 871.5,69.1667 871.5,67.8333 871.5,66.5 Z"/></g>
<g><path style="opacity:1" fill="#b7b8b7" d="M 883.5,70.5 C 884.833,70.5 886.167,70.5 887.5,70.5C 887.5,71.8333 887.5,73.1667 887.5,74.5C 886.167,74.5 884.833,74.5 883.5,74.5C 883.5,73.1667 883.5,71.8333 883.5,70.5 Z"/></g>
<g><path style="opacity:1" fill="#eaeaea" d="M 529.5,69.5 C 530.497,69.4701 531.164,69.9701 531.5,71C 532.533,75.2646 533.866,79.4312 535.5,83.5C 532.167,84.8333 528.833,84.8333 525.5,83.5C 527.446,78.9958 528.78,74.3291 529.5,69.5 Z"/></g>
<g><path style="opacity:1" fill="#757575" d="M 434.5,71.5 C 433.833,73.8333 433.167,76.1667 432.5,78.5C 432.335,75.4816 432.502,72.4816 433,69.5C 433.717,70.0442 434.217,70.7109 434.5,71.5 Z"/></g>
<g><path style="opacity:1" fill="#757575" d="M 485.5,71.5 C 484.833,73.8333 484.167,76.1667 483.5,78.5C 483.335,75.4816 483.502,72.4816 484,69.5C 484.717,70.0442 485.217,70.7109 485.5,71.5 Z"/></g>
<g><path style="opacity:1" fill="#757575" d="M 729.5,71.5 C 728.833,73.8333 728.167,76.1667 727.5,78.5C 727.335,75.4816 727.502,72.4816 728,69.5C 728.717,70.0442 729.217,70.7109 729.5,71.5 Z"/></g>
<g><path style="opacity:1" fill="#454648" d="M 146.5,70.5 C 147.833,70.5 149.167,70.5 150.5,70.5C 150.5,71.8333 150.5,73.1667 150.5,74.5C 149.167,74.5 147.833,74.5 146.5,74.5C 146.5,75.8333 146.5,77.1667 146.5,78.5C 145.167,78.5 143.833,78.5 142.5,78.5C 142.5,75.8333 142.5,73.1667 142.5,70.5C 143.833,70.5 145.167,70.5 146.5,70.5 Z"/></g>
<g><path style="opacity:1" fill="#909092" d="M 150.5,74.5 C 151.833,74.5 153.167,74.5 154.5,74.5C 154.5,75.8333 154.5,77.1667 154.5,78.5C 153.167,78.5 151.833,78.5 150.5,78.5C 149.167,78.5 147.833,78.5 146.5,78.5C 146.5,77.1667 146.5,75.8333 146.5,74.5C 147.833,74.5 149.167,74.5 150.5,74.5 Z"/></g>
<g><path style="opacity:1" fill="#a1a1a2" d="M 354.5,70.5 C 354.5,73.1667 354.5,75.8333 354.5,78.5C 353.167,78.5 351.833,78.5 350.5,78.5C 350.5,75.8333 350.5,73.1667 350.5,70.5C 351.833,70.5 353.167,70.5 354.5,70.5 Z"/></g>
<g><path style="opacity:1" fill="#9b9b9c" d="M 367.5,70.5 C 368.833,70.5 370.167,70.5 371.5,70.5C 371.5,73.1667 371.5,75.8333 371.5,78.5C 370.167,78.5 368.833,78.5 367.5,78.5C 367.5,75.8333 367.5,73.1667 367.5,70.5 Z"/></g>
<g><path style="opacity:1" fill="#292a29" d="M 858.5,74.5 C 859.833,74.5 861.167,74.5 862.5,74.5C 862.5,75.8333 862.5,77.1667 862.5,78.5C 861.167,78.5 859.833,78.5 858.5,78.5C 858.5,77.1667 858.5,75.8333 858.5,74.5 Z"/></g>
<g><path style="opacity:1" fill="#1f201f" d="M 879.5,74.5 C 879.5,75.8333 879.5,77.1667 879.5,78.5C 878.167,78.5 876.833,78.5 875.5,78.5C 875.5,77.1667 875.5,75.8333 875.5,74.5C 876.833,74.5 878.167,74.5 879.5,74.5 Z"/></g>
<g><path style="opacity:1" fill="#8e8f90" d="M 142.5,78.5 C 143.833,78.5 145.167,78.5 146.5,78.5C 146.5,79.8333 146.5,81.1667 146.5,82.5C 145.167,82.5 143.833,82.5 142.5,82.5C 140.833,82.5 139.167,82.5 137.5,82.5C 137.5,81.1667 137.5,79.8333 137.5,78.5C 139.167,78.5 140.833,78.5 142.5,78.5 Z"/></g>
<g><path style="opacity:1" fill="#4a4b4a" d="M 858.5,78.5 C 858.5,79.8333 858.5,81.1667 858.5,82.5C 857.167,82.5 855.833,82.5 854.5,82.5C 854.5,81.1667 854.5,79.8333 854.5,78.5C 855.833,78.5 857.167,78.5 858.5,78.5 Z"/></g>
<g><path style="opacity:1" fill="#b3b4b3" d="M 858.5,78.5 C 859.833,78.5 861.167,78.5 862.5,78.5C 862.5,79.8333 862.5,81.1667 862.5,82.5C 861.167,82.5 859.833,82.5 858.5,82.5C 858.5,81.1667 858.5,79.8333 858.5,78.5 Z"/></g>
<g><path style="opacity:1" fill="#cccccc" d="M 871.5,70.5 C 874.167,70.5 876.833,70.5 879.5,70.5C 879.5,71.8333 879.5,73.1667 879.5,74.5C 878.167,74.5 876.833,74.5 875.5,74.5C 875.5,75.8333 875.5,77.1667 875.5,78.5C 876.833,78.5 878.167,78.5 879.5,78.5C 879.5,79.8333 879.5,81.1667 879.5,82.5C 876.833,82.5 874.167,82.5 871.5,82.5C 871.5,79.8333 871.5,77.1667 871.5,74.5C 871.5,73.1667 871.5,71.8333 871.5,70.5 Z"/></g>
<g><path style="opacity:1" fill="#f0f0f1" d="M 146.5,78.5 C 147.833,78.5 149.167,78.5 150.5,78.5C 150.5,81.1667 150.5,83.8333 150.5,86.5C 147.833,86.5 145.167,86.5 142.5,86.5C 142.5,85.1667 142.5,83.8333 142.5,82.5C 143.833,82.5 145.167,82.5 146.5,82.5C 146.5,81.1667 146.5,79.8333 146.5,78.5 Z"/></g>
<g><path style="opacity:1" fill="#b9baba" d="M 154.5,82.5 C 155.833,82.5 157.167,82.5 158.5,82.5C 158.5,83.8333 158.5,85.1667 158.5,86.5C 158.5,85.1667 158.5,83.8333 158.5,82.5C 157.167,82.5 155.833,82.5 154.5,82.5 Z"/></g>
<g><path style="opacity:1" fill="#cacacb" d="M 350.5,82.5 C 350.5,88.1667 350.5,93.8333 350.5,99.5C 349.167,99.5 347.833,99.5 346.5,99.5C 346.5,93.8333 346.5,88.1667 346.5,82.5C 347.833,82.5 349.167,82.5 350.5,82.5 Z"/></g>
<g><path style="opacity:1" fill="#68686a" d="M 350.5,78.5 C 351.833,78.5 353.167,78.5 354.5,78.5C 354.5,79.8333 354.5,81.1667 354.5,82.5C 358.833,82.5 363.167,82.5 367.5,82.5C 367.5,81.1667 367.5,79.8333 367.5,78.5C 368.833,78.5 370.167,78.5 371.5,78.5C 371.5,79.8333 371.5,81.1667 371.5,82.5C 371.5,88.1667 371.5,93.8333 371.5,99.5C 364.5,99.5 357.5,99.5 350.5,99.5C 350.5,93.8333 350.5,88.1667 350.5,82.5C 350.5,81.1667 350.5,79.8333 350.5,78.5 Z"/></g>
<g><path style="opacity:1" fill="#99999a" d="M 354.5,78.5 C 358.833,78.5 363.167,78.5 367.5,78.5C 367.5,79.8333 367.5,81.1667 367.5,82.5C 363.167,82.5 358.833,82.5 354.5,82.5C 354.5,81.1667 354.5,79.8333 354.5,78.5 Z"/></g>
<g><path style="opacity:1" fill="#bfbfc0" d="M 371.5,82.5 C 372.833,82.5 374.167,82.5 375.5,82.5C 375.5,88.1667 375.5,93.8333 375.5,99.5C 374.167,99.5 372.833,99.5 371.5,99.5C 371.5,93.8333 371.5,88.1667 371.5,82.5 Z"/></g>
<g><path style="opacity:1" fill="#dddedd" d="M 125.5,86.5 C 125.5,88.1667 125.5,89.8333 125.5,91.5C 124.167,91.5 122.833,91.5 121.5,91.5C 121.5,89.8333 121.5,88.1667 121.5,86.5C 122.833,86.5 124.167,86.5 125.5,86.5 Z"/></g>
<g><path style="opacity:1" fill="#909192" d="M 125.5,86.5 C 126.833,86.5 128.167,86.5 129.5,86.5C 129.5,88.1667 129.5,89.8333 129.5,91.5C 128.167,91.5 126.833,91.5 125.5,91.5C 125.5,89.8333 125.5,88.1667 125.5,86.5 Z"/></g>
<g><path style="opacity:1" fill="#46474a" d="M 150.5,78.5 C 151.833,78.5 153.167,78.5 154.5,78.5C 154.5,79.8333 154.5,81.1667 154.5,82.5C 154.5,83.8333 154.5,85.1667 154.5,86.5C 155.833,86.5 157.167,86.5 158.5,86.5C 158.5,89.5 158.5,92.5 158.5,95.5C 157.167,95.5 155.833,95.5 154.5,95.5C 154.5,94.1667 154.5,92.8333 154.5,91.5C 150.5,91.5 146.5,91.5 142.5,91.5C 140.833,91.5 139.167,91.5 137.5,91.5C 137.5,88.5 137.5,85.5 137.5,82.5C 139.167,82.5 140.833,82.5 142.5,82.5C 142.5,83.8333 142.5,85.1667 142.5,86.5C 145.167,86.5 147.833,86.5 150.5,86.5C 150.5,83.8333 150.5,81.1667 150.5,78.5 Z"/></g>
<g><path style="opacity:1" fill="#1c1c1c" d="M 854.5,82.5 C 855.833,82.5 857.167,82.5 858.5,82.5C 858.5,86.8333 858.5,91.1667 858.5,95.5C 857.167,95.5 855.833,95.5 854.5,95.5C 854.5,91.1667 854.5,86.8333 854.5,82.5 Z"/></g>
<g><path style="opacity:1" fill="#78797b" d="M 125.5,86.5 C 124.167,86.5 122.833,86.5 121.5,86.5C 121.5,88.1667 121.5,89.8333 121.5,91.5C 122.833,91.5 124.167,91.5 125.5,91.5C 126.833,91.5 128.167,91.5 129.5,91.5C 129.5,92.8333 129.5,94.1667 129.5,95.5C 128.167,95.5 126.833,95.5 125.5,95.5C 122.833,95.5 120.167,95.5 117.5,95.5C 117.5,96.8333 117.5,98.1667 117.5,99.5C 115.833,99.5 114.167,99.5 112.5,99.5C 112.5,96.8333 112.5,94.1667 112.5,91.5C 114.167,91.5 115.833,91.5 117.5,91.5C 117.5,88.5 117.5,85.5 117.5,82.5C 118.833,82.5 120.167,82.5 121.5,82.5C 121.5,81.1667 121.5,79.8333 121.5,78.5C 122.833,78.5 124.167,78.5 125.5,78.5C 125.5,81.1667 125.5,83.8333 125.5,86.5 Z"/></g>
<g><path style="opacity:1" fill="#939394" d="M 137.5,91.5 C 139.167,91.5 140.833,91.5 142.5,91.5C 142.5,92.8333 142.5,94.1667 142.5,95.5C 140.833,95.5 139.167,95.5 137.5,95.5C 136.167,95.5 134.833,95.5 133.5,95.5C 133.5,94.1667 133.5,92.8333 133.5,91.5C 134.833,91.5 136.167,91.5 137.5,91.5 Z"/></g>
<g><path style="opacity:1" fill="#2c2c2c" d="M 896.5,95.5 C 895.167,95.5 893.833,95.5 892.5,95.5C 892.5,92.5 892.5,89.5 892.5,86.5C 893.833,86.5 895.167,86.5 896.5,86.5C 896.5,89.5 896.5,92.5 896.5,95.5 Z"/></g>
<g><path style="opacity:1" fill="#181818" d="M 651.5,92.5 C 656.159,92.0146 657.492,93.848 655.5,98C 651.132,98.4393 649.799,96.606 651.5,92.5 Z"/></g>
<g><path style="opacity:1" fill="#505050" d="M 607.5,94.5 C 612.5,94.5 617.5,94.5 622.5,94.5C 622.768,96.099 622.434,97.4324 621.5,98.5C 621.5,97.5 621.5,96.5 621.5,95.5C 616.637,95.8195 611.97,95.4861 607.5,94.5 Z"/></g>
<g><path style="opacity:1" fill="#b5b6b7" d="M 125.5,95.5 C 126.833,95.5 128.167,95.5 129.5,95.5C 130.833,95.5 132.167,95.5 133.5,95.5C 133.5,96.8333 133.5,98.1667 133.5,99.5C 130.833,99.5 128.167,99.5 125.5,99.5C 125.5,98.1667 125.5,96.8333 125.5,95.5 Z"/></g>
<g><path style="opacity:1" fill="#303234" d="M 133.5,95.5 C 134.833,95.5 136.167,95.5 137.5,95.5C 137.5,96.8333 137.5,98.1667 137.5,99.5C 136.167,99.5 134.833,99.5 133.5,99.5C 133.5,98.1667 133.5,96.8333 133.5,95.5 Z"/></g>
<g><path style="opacity:1" fill="#919193" d="M 154.5,95.5 C 155.833,95.5 157.167,95.5 158.5,95.5C 159.833,95.5 161.167,95.5 162.5,95.5C 162.5,96.8333 162.5,98.1667 162.5,99.5C 159.833,99.5 157.167,99.5 154.5,99.5C 154.5,98.1667 154.5,96.8333 154.5,95.5 Z"/></g>
<g><path style="opacity:1" fill="#aaabaa" d="M 854.5,95.5 C 855.833,95.5 857.167,95.5 858.5,95.5C 858.5,96.8333 858.5,98.1667 858.5,99.5C 857.167,99.5 855.833,99.5 854.5,99.5C 854.5,98.1667 854.5,96.8333 854.5,95.5 Z"/></g>
<g><path style="opacity:1" fill="#6b6b6b" d="M 892.5,95.5 C 893.833,95.5 895.167,95.5 896.5,95.5C 896.5,96.8333 896.5,98.1667 896.5,99.5C 895.167,99.5 893.833,99.5 892.5,99.5C 890.833,99.5 889.167,99.5 887.5,99.5C 887.5,98.1667 887.5,96.8333 887.5,95.5C 889.167,95.5 890.833,95.5 892.5,95.5 Z"/></g>
<g><path style="opacity:1" fill="#d8d8d9" d="M 350.5,99.5 C 357.5,99.5 364.5,99.5 371.5,99.5C 371.5,100.833 371.5,102.167 371.5,103.5C 364.5,103.5 357.5,103.5 350.5,103.5C 350.5,102.167 350.5,100.833 350.5,99.5 Z"/></g>
<g><path style="opacity:1" fill="#545454" d="M 858.5,95.5 C 859.833,95.5 861.167,95.5 862.5,95.5C 862.5,96.8333 862.5,98.1667 862.5,99.5C 864.167,99.5 865.833,99.5 867.5,99.5C 867.5,100.833 867.5,102.167 867.5,103.5C 865.833,103.5 864.167,103.5 862.5,103.5C 861.167,103.5 859.833,103.5 858.5,103.5C 858.5,102.167 858.5,100.833 858.5,99.5C 858.5,98.1667 858.5,96.8333 858.5,95.5 Z"/></g>
<g><path style="opacity:1" fill="#303130" d="M 887.5,99.5 C 889.167,99.5 890.833,99.5 892.5,99.5C 892.5,100.833 892.5,102.167 892.5,103.5C 890.833,103.5 889.167,103.5 887.5,103.5C 887.5,102.167 887.5,100.833 887.5,99.5 Z"/></g>
<g><path style="opacity:1" fill="#a4a5a4" d="M 862.5,103.5 C 864.167,103.5 865.833,103.5 867.5,103.5C 867.5,104.833 867.5,106.167 867.5,107.5C 865.833,107.5 864.167,107.5 862.5,107.5C 862.5,106.167 862.5,104.833 862.5,103.5 Z"/></g>
<g><path style="opacity:1" fill="#232323" d="M 867.5,103.5 C 872.833,103.5 878.167,103.5 883.5,103.5C 883.5,104.833 883.5,106.167 883.5,107.5C 878.167,107.5 872.833,107.5 867.5,107.5C 867.5,106.167 867.5,104.833 867.5,103.5 Z"/></g>
<g><path style="opacity:1" fill="#777777" d="M 887.5,99.5 C 887.5,100.833 887.5,102.167 887.5,103.5C 887.5,104.833 887.5,106.167 887.5,107.5C 886.167,107.5 884.833,107.5 883.5,107.5C 883.5,106.167 883.5,104.833 883.5,103.5C 883.5,102.167 883.5,100.833 883.5,99.5C 884.833,99.5 886.167,99.5 887.5,99.5 Z"/></g>
<g><path style="opacity:1" fill="#e5e5e5" d="M 92.5,141.5 C 365.833,141.5 639.167,141.5 912.5,141.5C 912.5,142.833 912.5,144.167 912.5,145.5C 639.167,145.5 365.833,145.5 92.5,145.5C 92.5,144.167 92.5,142.833 92.5,141.5 Z"/></g>
<g><path style="opacity:1" fill="#4387f5" d="M 504.5,174.5 C 504.5,175.833 504.5,177.167 504.5,178.5C 503.167,178.5 501.833,178.5 500.5,178.5C 499.167,178.5 497.833,178.5 496.5,178.5C 496.5,177.167 496.5,175.833 496.5,174.5C 499.167,174.5 501.833,174.5 504.5,174.5 Z"/></g>
<g><path style="opacity:1" fill="#b6d0f5" d="M 504.5,174.5 C 505.833,174.5 507.167,174.5 508.5,174.5C 508.5,175.833 508.5,177.167 508.5,178.5C 507.167,178.5 505.833,178.5 504.5,178.5C 504.5,177.167 504.5,175.833 504.5,174.5 Z"/></g>
<g><path style="opacity:1" fill="#6099f5" d="M 937.5,178.5 C 937.5,179.833 937.5,181.167 937.5,182.5C 936.167,182.5 934.833,182.5 933.5,182.5C 933.5,181.167 933.5,179.833 933.5,178.5C 922.5,178.5 911.5,178.5 900.5,178.5C 900.5,179.833 900.5,181.167 900.5,182.5C 899.167,182.5 897.833,182.5 896.5,182.5C 896.5,181.167 896.5,179.833 896.5,178.5C 896.5,177.167 896.5,175.833 896.5,174.5C 910.167,174.5 923.833,174.5 937.5,174.5C 937.5,175.833 937.5,177.167 937.5,178.5 Z"/></g>
<g><path style="opacity:1" fill="#c9dbf7" d="M 83.5,186.5 C 83.5,185.167 83.5,183.833 83.5,182.5C 82.1667,182.5 80.8333,182.5 79.5,182.5C 79.5,181.167 79.5,179.833 79.5,178.5C 82.1667,178.5 84.8333,178.5 87.5,178.5C 87.5,181.167 87.5,183.833 87.5,186.5C 86.1667,186.5 84.8333,186.5 83.5,186.5 Z"/></g>
<g><path style="opacity:1" fill="#609bf6" d="M 496.5,178.5 C 496.5,179.833 496.5,181.167 496.5,182.5C 495.167,182.5 493.833,182.5 492.5,182.5C 492.5,181.167 492.5,179.833 492.5,178.5C 493.833,178.5 495.167,178.5 496.5,178.5 Z"/></g>
<g><path style="opacity:1" fill="#b9d1f7" d="M 708.5,178.5 C 711.5,178.5 714.5,178.5 717.5,178.5C 717.5,179.833 717.5,181.167 717.5,182.5C 714.5,182.5 711.5,182.5 708.5,182.5C 708.5,181.167 708.5,179.833 708.5,178.5 Z"/></g>
<g><path style="opacity:1" fill="#f2f4f6" d="M 933.5,182.5 C 933.5,183.833 933.5,185.167 933.5,186.5C 926.5,186.5 919.5,186.5 912.5,186.5C 912.5,188.167 912.5,189.833 912.5,191.5C 911.167,191.5 909.833,191.5 908.5,191.5C 908.5,199.833 908.5,208.167 908.5,216.5C 905.833,216.5 903.167,216.5 900.5,216.5C 900.5,205.167 900.5,193.833 900.5,182.5C 900.5,181.167 900.5,179.833 900.5,178.5C 911.5,178.5 922.5,178.5 933.5,178.5C 933.5,179.833 933.5,181.167 933.5,182.5 Z"/></g>
<g><path style="opacity:1" fill="#4288f6" d="M 79.5,182.5 C 80.8333,182.5 82.1667,182.5 83.5,182.5C 83.5,183.833 83.5,185.167 83.5,186.5C 82.1667,186.5 80.8333,186.5 79.5,186.5C 79.5,185.167 79.5,183.833 79.5,182.5 Z"/></g>
<g><path style="opacity:1" fill="#a8c6f6" d="M 279.5,182.5 C 279.5,183.833 279.5,185.167 279.5,186.5C 278.167,186.5 276.833,186.5 275.5,186.5C 275.5,183.833 275.5,181.167 275.5,178.5C 276.833,178.5 278.167,178.5 279.5,178.5C 279.5,179.833 279.5,181.167 279.5,182.5 Z"/></g>
<g><path style="opacity:1" fill="#4f90f6" d="M 279.5,182.5 C 280.833,182.5 282.167,182.5 283.5,182.5C 283.5,183.833 283.5,185.167 283.5,186.5C 282.167,186.5 280.833,186.5 279.5,186.5C 279.5,185.167 279.5,183.833 279.5,182.5 Z"/></g>
<g><path style="opacity:1" fill="#cadbf6" d="M 496.5,178.5 C 497.833,178.5 499.167,178.5 500.5,178.5C 500.5,189.5 500.5,200.5 500.5,211.5C 499.167,211.5 497.833,211.5 496.5,211.5C 496.5,206.167 496.5,200.833 496.5,195.5C 495.167,195.5 493.833,195.5 492.5,195.5C 492.5,194.167 492.5,192.833 492.5,191.5C 489.5,191.5 486.5,191.5 483.5,191.5C 483.5,189.833 483.5,188.167 483.5,186.5C 484.833,186.5 486.167,186.5 487.5,186.5C 487.5,185.167 487.5,183.833 487.5,182.5C 489.167,182.5 490.833,182.5 492.5,182.5C 493.833,182.5 495.167,182.5 496.5,182.5C 496.5,181.167 496.5,179.833 496.5,178.5 Z"/></g>
<g><path style="opacity:1" fill="#85b0f6" d="M 500.5,178.5 C 501.833,178.5 503.167,178.5 504.5,178.5C 505.833,178.5 507.167,178.5 508.5,178.5C 509.833,178.5 511.167,178.5 512.5,178.5C 512.5,181.167 512.5,183.833 512.5,186.5C 511.167,186.5 509.833,186.5 508.5,186.5C 508.5,185.167 508.5,183.833 508.5,182.5C 507.167,182.5 505.833,182.5 504.5,182.5C 504.5,192.167 504.5,201.833 504.5,211.5C 503.167,211.5 501.833,211.5 500.5,211.5C 500.5,200.5 500.5,189.5 500.5,178.5 Z"/></g>
<g><path style="opacity:1" fill="#f5f6f7" d="M 708.5,182.5 C 708.5,183.833 708.5,185.167 708.5,186.5C 708.5,199.167 708.5,211.833 708.5,224.5C 707.167,224.5 705.833,224.5 704.5,224.5C 704.5,223.167 704.5,221.833 704.5,220.5C 700.5,220.5 696.5,220.5 692.5,220.5C 692.5,221.833 692.5,223.167 692.5,224.5C 690.833,224.5 689.167,224.5 687.5,224.5C 687.5,211.833 687.5,199.167 687.5,186.5C 687.5,185.167 687.5,183.833 687.5,182.5C 694.5,182.5 701.5,182.5 708.5,182.5 Z"/></g>
<g><path style="opacity:1" fill="#5a97f6" d="M 708.5,182.5 C 711.5,182.5 714.5,182.5 717.5,182.5C 717.5,183.833 717.5,185.167 717.5,186.5C 714.5,186.5 711.5,186.5 708.5,186.5C 708.5,185.167 708.5,183.833 708.5,182.5 Z"/></g>
<g><path style="opacity:1" fill="#f5f6f6" d="M 717.5,182.5 C 724.167,182.5 730.833,182.5 737.5,182.5C 737.5,183.833 737.5,185.167 737.5,186.5C 737.5,199.167 737.5,211.833 737.5,224.5C 736.167,224.5 734.833,224.5 733.5,224.5C 733.5,223.167 733.5,221.833 733.5,220.5C 729.5,220.5 725.5,220.5 721.5,220.5C 721.5,221.833 721.5,223.167 721.5,224.5C 720.167,224.5 718.833,224.5 717.5,224.5C 717.5,211.833 717.5,199.167 717.5,186.5C 717.5,185.167 717.5,183.833 717.5,182.5 Z"/></g>
<g><path style="opacity:1" fill="#b4cef6" d="M 896.5,178.5 C 896.5,179.833 896.5,181.167 896.5,182.5C 896.5,193.833 896.5,205.167 896.5,216.5C 895.167,216.5 893.833,216.5 892.5,216.5C 892.5,203.833 892.5,191.167 892.5,178.5C 893.833,178.5 895.167,178.5 896.5,178.5 Z"/></g>
<g><path style="opacity:1" fill="#92b8f6" d="M 896.5,182.5 C 897.833,182.5 899.167,182.5 900.5,182.5C 900.5,193.833 900.5,205.167 900.5,216.5C 899.167,216.5 897.833,216.5 896.5,216.5C 896.5,205.167 896.5,193.833 896.5,182.5 Z"/></g>
<g><path style="opacity:1" fill="#a1c2f7" d="M 937.5,178.5 C 939.167,178.5 940.833,178.5 942.5,178.5C 942.5,181.167 942.5,183.833 942.5,186.5C 939.5,186.5 936.5,186.5 933.5,186.5C 933.5,185.167 933.5,183.833 933.5,182.5C 934.833,182.5 936.167,182.5 937.5,182.5C 937.5,181.167 937.5,179.833 937.5,178.5 Z"/></g>
<g><path style="opacity:1" fill="#4489f6" d="M 79.5,186.5 C 79.5,188.167 79.5,189.833 79.5,191.5C 78.1667,191.5 76.8333,191.5 75.5,191.5C 75.5,189.833 75.5,188.167 75.5,186.5C 76.8333,186.5 78.1667,186.5 79.5,186.5 Z"/></g>
<g><path style="opacity:1" fill="#a6c6f6" d="M 279.5,186.5 C 280.833,186.5 282.167,186.5 283.5,186.5C 283.5,188.167 283.5,189.833 283.5,191.5C 282.167,191.5 280.833,191.5 279.5,191.5C 279.5,189.833 279.5,188.167 279.5,186.5 Z"/></g>
<g><path style="opacity:1" fill="#498cf6" d="M 283.5,186.5 C 284.833,186.5 286.167,186.5 287.5,186.5C 287.5,188.167 287.5,189.833 287.5,191.5C 286.167,191.5 284.833,191.5 283.5,191.5C 283.5,189.833 283.5,188.167 283.5,186.5 Z"/></g>
<g><path style="opacity:1" fill="#f6f6f7" d="M 508.5,186.5 C 508.5,188.167 508.5,189.833 508.5,191.5C 508.5,192.833 508.5,194.167 508.5,195.5C 512.833,195.5 517.167,195.5 521.5,195.5C 521.5,207.833 521.5,220.167 521.5,232.5C 508.833,232.5 496.167,232.5 483.5,232.5C 483.5,220.167 483.5,207.833 483.5,195.5C 486.5,195.5 489.5,195.5 492.5,195.5C 493.833,195.5 495.167,195.5 496.5,195.5C 496.5,200.833 496.5,206.167 496.5,211.5C 497.833,211.5 499.167,211.5 500.5,211.5C 500.5,213.167 500.5,214.833 500.5,216.5C 501.833,216.5 503.167,216.5 504.5,216.5C 504.5,214.833 504.5,213.167 504.5,211.5C 504.5,201.833 504.5,192.167 504.5,182.5C 505.833,182.5 507.167,182.5 508.5,182.5C 508.5,183.833 508.5,185.167 508.5,186.5 Z"/></g>
<g><path style="opacity:1" fill="#d3e1f6" d="M 508.5,186.5 C 509.833,186.5 511.167,186.5 512.5,186.5C 515.5,186.5 518.5,186.5 521.5,186.5C 521.5,188.167 521.5,189.833 521.5,191.5C 517.167,191.5 512.833,191.5 508.5,191.5C 508.5,189.833 508.5,188.167 508.5,186.5 Z"/></g>
<g><path style="opacity:1" fill="#649cf6" d="M 708.5,178.5 C 708.5,179.833 708.5,181.167 708.5,182.5C 701.5,182.5 694.5,182.5 687.5,182.5C 687.5,183.833 687.5,185.167 687.5,186.5C 686.167,186.5 684.833,186.5 683.5,186.5C 683.5,199.167 683.5,211.833 683.5,224.5C 684.833,224.5 686.167,224.5 687.5,224.5C 689.167,224.5 690.833,224.5 692.5,224.5C 696.5,224.5 700.5,224.5 704.5,224.5C 705.833,224.5 707.167,224.5 708.5,224.5C 711.5,224.5 714.5,224.5 717.5,224.5C 718.833,224.5 720.167,224.5 721.5,224.5C 721.5,225.833 721.5,227.167 721.5,228.5C 720.167,228.5 718.833,228.5 717.5,228.5C 714.5,228.5 711.5,228.5 708.5,228.5C 701.5,228.5 694.5,228.5 687.5,228.5C 684.833,228.5 682.167,228.5 679.5,228.5C 679.5,213.167 679.5,197.833 679.5,182.5C 680.833,182.5 682.167,182.5 683.5,182.5C 683.5,181.167 683.5,179.833 683.5,178.5C 691.833,178.5 700.167,178.5 708.5,178.5 Z"/></g>
<g><path style="opacity:1" fill="#d2e1f5" d="M 687.5,186.5 C 687.5,199.167 687.5,211.833 687.5,224.5C 686.167,224.5 684.833,224.5 683.5,224.5C 683.5,211.833 683.5,199.167 683.5,186.5C 684.833,186.5 686.167,186.5 687.5,186.5 Z"/></g>
<g><path style="opacity:1" fill="#9cbff6" d="M 708.5,186.5 C 711.5,186.5 714.5,186.5 717.5,186.5C 717.5,199.167 717.5,211.833 717.5,224.5C 714.5,224.5 711.5,224.5 708.5,224.5C 708.5,211.833 708.5,199.167 708.5,186.5 Z"/></g>
<g><path style="opacity:1" fill="#bed5f5" d="M 737.5,186.5 C 739.167,186.5 740.833,186.5 742.5,186.5C 742.5,199.167 742.5,211.833 742.5,224.5C 740.833,224.5 739.167,224.5 737.5,224.5C 737.5,211.833 737.5,199.167 737.5,186.5 Z"/></g>
<g><path style="opacity:1" fill="#6ea3f6" d="M 717.5,178.5 C 725.833,178.5 734.167,178.5 742.5,178.5C 742.5,179.833 742.5,181.167 742.5,182.5C 743.833,182.5 745.167,182.5 746.5,182.5C 746.5,197.833 746.5,213.167 746.5,228.5C 743.5,228.5 740.5,228.5 737.5,228.5C 736.167,228.5 734.833,228.5 733.5,228.5C 733.5,227.167 733.5,225.833 733.5,224.5C 734.833,224.5 736.167,224.5 737.5,224.5C 739.167,224.5 740.833,224.5 742.5,224.5C 742.5,211.833 742.5,199.167 742.5,186.5C 740.833,186.5 739.167,186.5 737.5,186.5C 737.5,185.167 737.5,183.833 737.5,182.5C 730.833,182.5 724.167,182.5 717.5,182.5C 717.5,181.167 717.5,179.833 717.5,178.5 Z"/></g>
<g><path style="opacity:1" fill="#5492f6" d="M 933.5,186.5 C 936.5,186.5 939.5,186.5 942.5,186.5C 945.167,186.5 947.833,186.5 950.5,186.5C 950.5,188.167 950.5,189.833 950.5,191.5C 949.167,191.5 947.833,191.5 946.5,191.5C 935.167,191.5 923.833,191.5 912.5,191.5C 912.5,189.833 912.5,188.167 912.5,186.5C 919.5,186.5 926.5,186.5 933.5,186.5 Z"/></g>
<g><path style="opacity:1" fill="#4288f6" d="M 75.5,191.5 C 75.5,192.833 75.5,194.167 75.5,195.5C 74.1667,195.5 72.8333,195.5 71.5,195.5C 71.5,194.167 71.5,192.833 71.5,191.5C 72.8333,191.5 74.1667,191.5 75.5,191.5 Z"/></g>
<g><path style="opacity:1" fill="#afccf6" d="M 283.5,191.5 C 284.833,191.5 286.167,191.5 287.5,191.5C 287.5,192.833 287.5,194.167 287.5,195.5C 286.167,195.5 284.833,195.5 283.5,195.5C 283.5,194.167 283.5,192.833 283.5,191.5 Z"/></g>
<g><path style="opacity:1" fill="#498cf6" d="M 287.5,191.5 C 289.167,191.5 290.833,191.5 292.5,191.5C 292.5,192.833 292.5,194.167 292.5,195.5C 290.833,195.5 289.167,195.5 287.5,195.5C 287.5,194.167 287.5,192.833 287.5,191.5 Z"/></g>
<g><path style="opacity:1" fill="#679ef6" d="M 483.5,191.5 C 486.5,191.5 489.5,191.5 492.5,191.5C 492.5,192.833 492.5,194.167 492.5,195.5C 489.5,195.5 486.5,195.5 483.5,195.5C 482.167,195.5 480.833,195.5 479.5,195.5C 479.5,194.167 479.5,192.833 479.5,191.5C 480.833,191.5 482.167,191.5 483.5,191.5 Z"/></g>
<g><path style="opacity:1" fill="#75a6f6" d="M 508.5,191.5 C 512.833,191.5 517.167,191.5 521.5,191.5C 522.833,191.5 524.167,191.5 525.5,191.5C 525.5,192.833 525.5,194.167 525.5,195.5C 524.167,195.5 522.833,195.5 521.5,195.5C 517.167,195.5 512.833,195.5 508.5,195.5C 508.5,194.167 508.5,192.833 508.5,191.5 Z"/></g>
<g><path style="opacity:1" fill="#87b1f6" d="M 946.5,191.5 C 947.833,191.5 949.167,191.5 950.5,191.5C 951.833,191.5 953.167,191.5 954.5,191.5C 954.5,192.833 954.5,194.167 954.5,195.5C 953.167,195.5 951.833,195.5 950.5,195.5C 949.167,195.5 947.833,195.5 946.5,195.5C 946.5,194.167 946.5,192.833 946.5,191.5 Z"/></g>
<g><path style="opacity:1" fill="#bbd2f5" d="M 67.5,195.5 C 67.5,196.833 67.5,198.167 67.5,199.5C 65.8333,199.5 64.1667,199.5 62.5,199.5C 62.5,198.167 62.5,196.833 62.5,195.5C 64.1667,195.5 65.8333,195.5 67.5,195.5 Z"/></g>
<g><path style="opacity:1" fill="#468af6" d="M 67.5,195.5 C 68.8333,195.5 70.1667,195.5 71.5,195.5C 71.5,196.833 71.5,198.167 71.5,199.5C 70.1667,199.5 68.8333,199.5 67.5,199.5C 67.5,198.167 67.5,196.833 67.5,195.5 Z"/></g>
<g><path style="opacity:1" fill="#b2cdf6" d="M 287.5,195.5 C 289.167,195.5 290.833,195.5 292.5,195.5C 292.5,196.833 292.5,198.167 292.5,199.5C 290.833,199.5 289.167,199.5 287.5,199.5C 287.5,198.167 287.5,196.833 287.5,195.5 Z"/></g>
<g><path style="opacity:1" fill="#458af6" d="M 292.5,195.5 C 293.833,195.5 295.167,195.5 296.5,195.5C 296.5,196.833 296.5,198.167 296.5,199.5C 295.167,199.5 293.833,199.5 292.5,199.5C 292.5,198.167 292.5,196.833 292.5,195.5 Z"/></g>
<g><path style="opacity:1" fill="#5d97f6" d="M 912.5,191.5 C 912.5,203.833 912.5,216.167 912.5,228.5C 914.167,228.5 915.833,228.5 917.5,228.5C 917.5,229.833 917.5,231.167 917.5,232.5C 915.833,232.5 914.167,232.5 912.5,232.5C 911.167,232.5 909.833,232.5 908.5,232.5C 908.5,229.833 908.5,227.167 908.5,224.5C 908.5,223.167 908.5,221.833 908.5,220.5C 905.833,220.5 903.167,220.5 900.5,220.5C 899.167,220.5 897.833,220.5 896.5,220.5C 896.5,219.167 896.5,217.833 896.5,216.5C 897.833,216.5 899.167,216.5 900.5,216.5C 903.167,216.5 905.833,216.5 908.5,216.5C 908.5,208.167 908.5,199.833 908.5,191.5C 909.833,191.5 911.167,191.5 912.5,191.5 Z"/></g>
<g><path style="opacity:1" fill="#f4f5f6" d="M 912.5,191.5 C 923.833,191.5 935.167,191.5 946.5,191.5C 946.5,192.833 946.5,194.167 946.5,195.5C 947.833,195.5 949.167,195.5 950.5,195.5C 950.5,206.5 950.5,217.5 950.5,228.5C 939.5,228.5 928.5,228.5 917.5,228.5C 915.833,228.5 914.167,228.5 912.5,228.5C 912.5,216.167 912.5,203.833 912.5,191.5 Z"/></g>
<g><path style="opacity:1" fill="#5996f6" d="M 950.5,195.5 C 951.833,195.5 953.167,195.5 954.5,195.5C 954.5,206.5 954.5,217.5 954.5,228.5C 953.167,228.5 951.833,228.5 950.5,228.5C 950.5,217.5 950.5,206.5 950.5,195.5 Z"/></g>
<g><path style="opacity:1" fill="#b4cff6" d="M 62.5,199.5 C 62.5,200.833 62.5,202.167 62.5,203.5C 61.1667,203.5 59.8333,203.5 58.5,203.5C 58.5,202.167 58.5,200.833 58.5,199.5C 59.8333,199.5 61.1667,199.5 62.5,199.5 Z"/></g>
<g><path style="opacity:1" fill="#80aef6" d="M 479.5,195.5 C 479.5,207.833 479.5,220.167 479.5,232.5C 478.167,232.5 476.833,232.5 475.5,232.5C 475.5,220.167 475.5,207.833 475.5,195.5C 476.833,195.5 478.167,195.5 479.5,195.5 Z"/></g>
<g><path style="opacity:1" fill="#c5d8f6" d="M 479.5,195.5 C 480.833,195.5 482.167,195.5 483.5,195.5C 483.5,207.833 483.5,220.167 483.5,232.5C 482.167,232.5 480.833,232.5 479.5,232.5C 479.5,220.167 479.5,207.833 479.5,195.5 Z"/></g>
<g><path style="opacity:1" fill="#5191f6" d="M 521.5,195.5 C 522.833,195.5 524.167,195.5 525.5,195.5C 525.5,207.833 525.5,220.167 525.5,232.5C 524.167,232.5 522.833,232.5 521.5,232.5C 521.5,220.167 521.5,207.833 521.5,195.5 Z"/></g>
<g><path style="opacity:1" fill="#4e8ff6" d="M 296.5,199.5 C 297.833,199.5 299.167,199.5 300.5,199.5C 300.5,200.833 300.5,202.167 300.5,203.5C 300.5,204.833 300.5,206.167 300.5,207.5C 299.167,207.5 297.833,207.5 296.5,207.5C 296.5,204.833 296.5,202.167 296.5,199.5 Z"/></g>
<g><path style="opacity:1" fill="#9fc1f7" d="M 300.5,203.5 C 301.833,203.5 303.167,203.5 304.5,203.5C 304.5,204.833 304.5,206.167 304.5,207.5C 303.167,207.5 301.833,207.5 300.5,207.5C 300.5,206.167 300.5,204.833 300.5,203.5 Z"/></g>
<g><path style="opacity:1" fill="#74a6f6" d="M 62.5,199.5 C 64.1667,199.5 65.8333,199.5 67.5,199.5C 67.5,202.167 67.5,204.833 67.5,207.5C 68.8333,207.5 70.1667,207.5 71.5,207.5C 71.5,208.833 71.5,210.167 71.5,211.5C 72.8333,211.5 74.1667,211.5 75.5,211.5C 75.5,213.167 75.5,214.833 75.5,216.5C 76.8333,216.5 78.1667,216.5 79.5,216.5C 79.5,217.833 79.5,219.167 79.5,220.5C 80.8333,220.5 82.1667,220.5 83.5,220.5C 83.5,221.833 83.5,223.167 83.5,224.5C 84.8333,224.5 86.1667,224.5 87.5,224.5C 87.5,225.833 87.5,227.167 87.5,228.5C 84.8333,228.5 82.1667,228.5 79.5,228.5C 79.5,227.167 79.5,225.833 79.5,224.5C 78.1667,224.5 76.8333,224.5 75.5,224.5C 75.5,223.167 75.5,221.833 75.5,220.5C 74.1667,220.5 72.8333,220.5 71.5,220.5C 71.5,219.167 71.5,217.833 71.5,216.5C 70.1667,216.5 68.8333,216.5 67.5,216.5C 67.5,214.833 67.5,213.167 67.5,211.5C 65.8333,211.5 64.1667,211.5 62.5,211.5C 62.5,210.167 62.5,208.833 62.5,207.5C 61.1667,207.5 59.8333,207.5 58.5,207.5C 58.5,206.167 58.5,204.833 58.5,203.5C 59.8333,203.5 61.1667,203.5 62.5,203.5C 62.5,202.167 62.5,200.833 62.5,199.5 Z"/></g>
<g><path style="opacity:1" fill="#80acf6" d="M 296.5,207.5 C 297.833,207.5 299.167,207.5 300.5,207.5C 300.5,208.833 300.5,210.167 300.5,211.5C 299.167,211.5 297.833,211.5 296.5,211.5C 296.5,213.167 296.5,214.833 296.5,216.5C 295.167,216.5 293.833,216.5 292.5,216.5C 292.5,217.833 292.5,219.167 292.5,220.5C 290.833,220.5 289.167,220.5 287.5,220.5C 287.5,219.167 287.5,217.833 287.5,216.5C 287.5,214.833 287.5,213.167 287.5,211.5C 289.167,211.5 290.833,211.5 292.5,211.5C 292.5,210.167 292.5,208.833 292.5,207.5C 293.833,207.5 295.167,207.5 296.5,207.5 Z"/></g>
<g><path style="opacity:1" fill="#bad2f5" d="M 500.5,211.5 C 501.833,211.5 503.167,211.5 504.5,211.5C 504.5,213.167 504.5,214.833 504.5,216.5C 503.167,216.5 501.833,216.5 500.5,216.5C 500.5,214.833 500.5,213.167 500.5,211.5 Z"/></g>
<g><path style="opacity:1" fill="#5493f7" d="M 287.5,216.5 C 287.5,217.833 287.5,219.167 287.5,220.5C 286.167,220.5 284.833,220.5 283.5,220.5C 283.5,219.167 283.5,217.833 283.5,216.5C 284.833,216.5 286.167,216.5 287.5,216.5 Z"/></g>
<g><path style="opacity:1" fill="#5292f7" d="M 283.5,220.5 C 283.5,221.833 283.5,223.167 283.5,224.5C 282.167,224.5 280.833,224.5 279.5,224.5C 279.5,223.167 279.5,221.833 279.5,220.5C 280.833,220.5 282.167,220.5 283.5,220.5 Z"/></g>
<g><path style="opacity:1" fill="#9ec1f7" d="M 283.5,220.5 C 284.833,220.5 286.167,220.5 287.5,220.5C 287.5,221.833 287.5,223.167 287.5,224.5C 286.167,224.5 284.833,224.5 283.5,224.5C 283.5,223.167 283.5,221.833 283.5,220.5 Z"/></g>
<g><path style="opacity:1" fill="#c3d7f6" d="M 704.5,224.5 C 700.5,224.5 696.5,224.5 692.5,224.5C 692.5,223.167 692.5,221.833 692.5,220.5C 696.5,220.5 700.5,220.5 704.5,220.5C 704.5,221.833 704.5,223.167 704.5,224.5 Z"/></g>
<g><path style="opacity:1" fill="#c3d7f6" d="M 733.5,224.5 C 729.5,224.5 725.5,224.5 721.5,224.5C 721.5,223.167 721.5,221.833 721.5,220.5C 725.5,220.5 729.5,220.5 733.5,220.5C 733.5,221.833 733.5,223.167 733.5,224.5 Z"/></g>
<g><path style="opacity:1" fill="#bed3f6" d="M 900.5,220.5 C 903.167,220.5 905.833,220.5 908.5,220.5C 908.5,221.833 908.5,223.167 908.5,224.5C 905.833,224.5 903.167,224.5 900.5,224.5C 900.5,223.167 900.5,221.833 900.5,220.5 Z"/></g>
<g><path style="opacity:1" fill="#95baf6" d="M 279.5,224.5 C 280.833,224.5 282.167,224.5 283.5,224.5C 283.5,225.833 283.5,227.167 283.5,228.5C 280.833,228.5 278.167,228.5 275.5,228.5C 275.5,227.167 275.5,225.833 275.5,224.5C 276.833,224.5 278.167,224.5 279.5,224.5 Z"/></g>
<g><path style="opacity:1" fill="#85b1f6" d="M 721.5,224.5 C 725.5,224.5 729.5,224.5 733.5,224.5C 733.5,225.833 733.5,227.167 733.5,228.5C 729.5,228.5 725.5,228.5 721.5,228.5C 721.5,227.167 721.5,225.833 721.5,224.5 Z"/></g>
<g><path style="opacity:1" fill="#a8c6f6" d="M 679.5,228.5 C 682.167,228.5 684.833,228.5 687.5,228.5C 687.5,229.833 687.5,231.167 687.5,232.5C 684.833,232.5 682.167,232.5 679.5,232.5C 679.5,231.167 679.5,229.833 679.5,228.5 Z"/></g>
<g><path style="opacity:1" fill="#94bbf6" d="M 708.5,228.5 C 711.5,228.5 714.5,228.5 717.5,228.5C 717.5,229.833 717.5,231.167 717.5,232.5C 714.5,232.5 711.5,232.5 708.5,232.5C 708.5,231.167 708.5,229.833 708.5,228.5 Z"/></g>
<g><path style="opacity:1" fill="#abc8f6" d="M 737.5,228.5 C 740.5,228.5 743.5,228.5 746.5,228.5C 746.5,229.833 746.5,231.167 746.5,232.5C 743.5,232.5 740.5,232.5 737.5,232.5C 737.5,231.167 737.5,229.833 737.5,228.5 Z"/></g>
<g><path style="opacity:1" fill="#89b2f6" d="M 917.5,228.5 C 928.5,228.5 939.5,228.5 950.5,228.5C 951.833,228.5 953.167,228.5 954.5,228.5C 954.5,229.833 954.5,231.167 954.5,232.5C 953.167,232.5 951.833,232.5 950.5,232.5C 939.5,232.5 928.5,232.5 917.5,232.5C 917.5,231.167 917.5,229.833 917.5,228.5 Z"/></g>
<g><path style="opacity:1" fill="#4b8df6" d="M 479.5,232.5 C 480.833,232.5 482.167,232.5 483.5,232.5C 496.167,232.5 508.833,232.5 521.5,232.5C 521.5,233.833 521.5,235.167 521.5,236.5C 507.5,236.5 493.5,236.5 479.5,236.5C 479.5,235.167 479.5,233.833 479.5,232.5 Z"/></g>
<g><path style="opacity:1" fill="#b5cff6" d="M 521.5,232.5 C 522.833,232.5 524.167,232.5 525.5,232.5C 525.5,233.833 525.5,235.167 525.5,236.5C 524.167,236.5 522.833,236.5 521.5,236.5C 521.5,235.167 521.5,233.833 521.5,232.5 Z"/></g>
<g><path style="opacity:1" fill="#b9d1f6" d="M 912.5,232.5 C 914.167,232.5 915.833,232.5 917.5,232.5C 928.5,232.5 939.5,232.5 950.5,232.5C 950.5,233.833 950.5,235.167 950.5,236.5C 937.833,236.5 925.167,236.5 912.5,236.5C 912.5,235.167 912.5,233.833 912.5,232.5 Z"/></g>
<g><path style="opacity:1" fill="#a5a5a5" d="M 679.5,320.5 C 562.833,320.5 446.167,320.5 329.5,320.5C 329.5,319.167 329.5,317.833 329.5,316.5C 446.167,316.5 562.833,316.5 679.5,316.5C 679.5,317.833 679.5,319.167 679.5,320.5 Z"/></g>
<g><path style="opacity:1" fill="#000000" d="M 329.5,320.5 C 446.167,320.5 562.833,320.5 679.5,320.5C 679.5,323.167 679.5,325.833 679.5,328.5C 562.833,328.5 446.167,328.5 329.5,328.5C 328.167,328.5 326.833,328.5 325.5,328.5C 325.5,325.833 325.5,323.167 325.5,320.5C 326.833,320.5 328.167,320.5 329.5,320.5 Z"/></g>
<g><path style="opacity:1" fill="#3c3c3c" d="M 679.5,320.5 C 680.833,320.5 682.167,320.5 683.5,320.5C 683.5,323.167 683.5,325.833 683.5,328.5C 682.167,328.5 680.833,328.5 679.5,328.5C 679.5,325.833 679.5,323.167 679.5,320.5 Z"/></g>
<g><path style="opacity:1" fill="#737473" d="M 325.5,328.5 C 326.833,328.5 328.167,328.5 329.5,328.5C 329.5,329.833 329.5,331.167 329.5,332.5C 328.167,332.5 326.833,332.5 325.5,332.5C 325.5,331.167 325.5,329.833 325.5,328.5 Z"/></g>
<g><path style="opacity:1" fill="#212121" d="M 329.5,328.5 C 446.167,328.5 562.833,328.5 679.5,328.5C 679.5,329.833 679.5,331.167 679.5,332.5C 562.833,332.5 446.167,332.5 329.5,332.5C 329.5,331.167 329.5,329.833 329.5,328.5 Z"/></g>
<g><path style="opacity:0.961" fill="#eff0ef" d="M 0.5,345.5 C 335.167,345.5 669.833,345.5 1004.5,345.5C 1004.5,346.833 1004.5,348.167 1004.5,349.5C 669.833,349.5 335.167,349.5 0.5,349.5C 0.5,348.167 0.5,346.833 0.5,345.5 Z"/></g>
</svg>
