<?xml version="1.0" encoding="UTF-8"?>
<!DOCTYPE svg PUBLIC "-//W3C//DTD SVG 1.1//EN" "http://www.w3.org/Graphics/SVG/1.1/DTD/svg11.dtd">
<svg xmlns="http://www.w3.org/2000/svg" version="1.1" width="1334px" height="72px" style="shape-rendering:geometricPrecision; text-rendering:geometricPrecision; image-rendering:optimizeQuality; fill-rule:evenodd; clip-rule:evenodd" xmlns:xlink="http://www.w3.org/1999/xlink">
<g><path style="opacity:0.897" fill="#fefefe" d="M -0.5,-0.5 C 443.833,-0.5 888.167,-0.5 1332.5,-0.5C 1332.5,23.1667 1332.5,46.8333 1332.5,70.5C 888.167,70.5 443.833,70.5 -0.5,70.5C -0.5,46.8333 -0.5,23.1667 -0.5,-0.5 Z"/></g>
<g><path style="opacity:0.913" fill="#f1f1f1" d="M 411.5,16.5 C 581.167,16.5 750.833,16.5 920.5,16.5C 920.5,17.8333 920.5,19.1667 920.5,20.5C 921.833,20.5 923.167,20.5 924.5,20.5C 924.5,30.1667 924.5,39.8333 924.5,49.5C 923.167,49.5 921.833,49.5 920.5,49.5C 920.5,50.8333 920.5,52.1667 920.5,53.5C 750.833,53.5 581.167,53.5 411.5,53.5C 411.5,52.1667 411.5,50.8333 411.5,49.5C 410.167,49.5 408.833,49.5 407.5,49.5C 407.5,39.8333 407.5,30.1667 407.5,20.5C 408.833,20.5 410.167,20.5 411.5,20.5C 411.5,19.1667 411.5,17.8333 411.5,16.5 Z"/></g>
<g><path style="opacity:0.969" fill="#eea098" d="M 41.5,28.5 C 37.1667,28.5 32.8333,28.5 28.5,28.5C 28.5,27.1667 28.5,25.8333 28.5,24.5C 32.8333,24.5 37.1667,24.5 41.5,24.5C 41.5,25.8333 41.5,27.1667 41.5,28.5 Z"/></g>
<g><path style="opacity:0.965" fill="#f4cf89" d="M 66.5,28.5 C 63.5,28.5 60.5,28.5 57.5,28.5C 57.5,27.1667 57.5,25.8333 57.5,24.5C 60.5,24.5 63.5,24.5 66.5,24.5C 66.5,25.8333 66.5,27.1667 66.5,28.5 Z"/></g>
<g><path style="opacity:0.969" fill="#9dd792" d="M 95.5,28.5 C 91.1667,28.5 86.8333,28.5 82.5,28.5C 82.5,27.1667 82.5,25.8333 82.5,24.5C 86.8333,24.5 91.1667,24.5 95.5,24.5C 95.5,25.8333 95.5,27.1667 95.5,28.5 Z"/></g>
<g><path style="opacity:0.944" fill="#c1c1c1" d="M 1299.5,24.5 C 1295.17,24.5 1290.83,24.5 1286.5,24.5C 1286.5,25.8333 1286.5,27.1667 1286.5,28.5C 1288.17,28.5 1289.83,28.5 1291.5,28.5C 1291.5,29.8333 1291.5,31.1667 1291.5,32.5C 1291.5,35.5 1291.5,38.5 1291.5,41.5C 1295.5,41.5 1299.5,41.5 1303.5,41.5C 1303.5,38.5 1303.5,35.5 1303.5,32.5C 1303.5,31.1667 1303.5,29.8333 1303.5,28.5C 1304.83,28.5 1306.17,28.5 1307.5,28.5C 1307.5,34.1667 1307.5,39.8333 1307.5,45.5C 1300.5,45.5 1293.5,45.5 1286.5,45.5C 1286.5,44.1667 1286.5,42.8333 1286.5,41.5C 1285.17,41.5 1283.83,41.5 1282.5,41.5C 1282.5,34.5 1282.5,27.5 1282.5,20.5C 1288.17,20.5 1293.83,20.5 1299.5,20.5C 1299.5,21.8333 1299.5,23.1667 1299.5,24.5 Z"/></g>
<g><path style="opacity:0.927" fill="#dcdcdc" d="M 1299.5,24.5 C 1300.83,24.5 1302.17,24.5 1303.5,24.5C 1303.5,25.8333 1303.5,27.1667 1303.5,28.5C 1303.5,29.8333 1303.5,31.1667 1303.5,32.5C 1299.5,32.5 1295.5,32.5 1291.5,32.5C 1291.5,31.1667 1291.5,29.8333 1291.5,28.5C 1289.83,28.5 1288.17,28.5 1286.5,28.5C 1286.5,27.1667 1286.5,25.8333 1286.5,24.5C 1290.83,24.5 1295.17,24.5 1299.5,24.5 Z"/></g>
<g><path style="opacity:1" fill="#212121" d="M 658.5,26.5 C 659.496,26.4142 660.329,26.7476 661,27.5C 661.667,31.5 661.667,35.5 661,39.5C 660.333,32.8333 659.667,32.8333 659,39.5C 658.501,35.1794 658.334,30.8461 658.5,26.5 Z"/></g>
<g><path style="opacity:1" fill="#181818" d="M 662.5,26.5 C 663.222,26.9175 663.722,27.5842 664,28.5C 665.353,27.2958 667.019,26.6292 669,26.5C 670.5,26.8333 672,27.1667 673.5,27.5C 672.732,31.4452 672.232,35.4452 672,39.5C 671.501,35.8484 671.335,32.1817 671.5,28.5C 670.167,28.5 668.833,28.5 667.5,28.5C 667.48,30.143 668.147,31.4763 669.5,32.5C 666.833,34.5 666.833,36.5 669.5,38.5C 667.955,39.4519 666.288,39.7852 664.5,39.5C 664.307,35.551 663.807,35.551 663,39.5C 662.501,35.1794 662.334,30.8461 662.5,26.5 Z"/></g>
<g><path style="opacity:1" fill="#020202" d="M 639.5,33.5 C 639.5,35.5 639.5,37.5 639.5,39.5C 638.539,37.7354 638.205,35.7354 638.5,33.5C 637.5,33.5 636.5,33.5 635.5,33.5C 634.161,33.9317 634.161,33.2651 635.5,31.5C 636.5,31.5 637.5,31.5 638.5,31.5C 638.34,29.8008 638.506,28.1341 639,26.5C 639.497,28.8098 639.663,31.1432 639.5,33.5 Z"/></g>
<g><path style="opacity:1" fill="#191919" d="M 642.5,36.5 C 642.34,34.847 641.674,33.5137 640.5,32.5C 640.201,30.396 640.534,28.396 641.5,26.5C 642.314,28.7662 642.814,31.0995 643,33.5C 643.186,31.0995 643.686,28.7662 644.5,26.5C 645.661,30.7953 645.828,35.1287 645,39.5C 644.333,32.8333 643.667,32.8333 643,39.5C 642.517,38.552 642.351,37.552 642.5,36.5 Z"/></g>
<g><path style="opacity:1" fill="#161616" d="M 652.5,32.5 C 650.926,34.1016 650.259,36.1016 650.5,38.5C 649.579,38.0697 649.079,36.7364 649,34.5C 648.667,36.1667 648.333,37.8333 648,39.5C 647.172,35.1287 647.339,30.7953 648.5,26.5C 649.314,28.7662 649.814,31.0995 650,33.5C 650.14,30.9568 650.806,28.6234 652,26.5C 652.495,28.4727 652.662,30.4727 652.5,32.5 Z"/></g>
<g><path style="opacity:1" fill="#d2d2d2" d="M 665.5,27.5 C 666.641,30.6399 666.808,33.9733 666,37.5C 664.18,34.2333 664.014,30.9 665.5,27.5 Z"/></g>
<g><path style="opacity:1" fill="#161616" d="M 689.5,32.5 C 687.926,34.1016 687.259,36.1016 687.5,38.5C 686.579,38.0697 686.079,36.7364 686,34.5C 685.667,36.1667 685.333,37.8333 685,39.5C 684.172,35.1287 684.339,30.7953 685.5,26.5C 686.314,28.7662 686.814,31.0995 687,33.5C 687.14,30.9568 687.806,28.6234 689,26.5C 689.495,28.4727 689.662,30.4727 689.5,32.5 Z"/></g>
<g><path style="opacity:1" fill="#ec6d62" d="M 28.5,28.5 C 32.8333,28.5 37.1667,28.5 41.5,28.5C 41.5,32.8333 41.5,37.1667 41.5,41.5C 37.1667,41.5 32.8333,41.5 28.5,41.5C 28.5,37.1667 28.5,32.8333 28.5,28.5 Z"/></g>
<g><path style="opacity:1" fill="#f4bd4f" d="M 57.5,28.5 C 60.5,28.5 63.5,28.5 66.5,28.5C 66.5,32.8333 66.5,37.1667 66.5,41.5C 63.5,41.5 60.5,41.5 57.5,41.5C 57.5,37.1667 57.5,32.8333 57.5,28.5 Z"/></g>
<g><path style="opacity:1" fill="#65c457" d="M 82.5,28.5 C 86.8333,28.5 91.1667,28.5 95.5,28.5C 95.5,32.8333 95.5,37.1667 95.5,41.5C 91.1667,41.5 86.8333,41.5 82.5,41.5C 82.5,37.1667 82.5,32.8333 82.5,28.5 Z"/></g>
<g><path style="opacity:0.937" fill="#d8d8d8" d="M 153.5,24.5 C 153.5,25.8333 153.5,27.1667 153.5,28.5C 149.5,28.5 145.5,28.5 141.5,28.5C 141.5,27.1667 141.5,25.8333 141.5,24.5C 139.833,24.5 138.167,24.5 136.5,24.5C 136.5,30.1667 136.5,35.8333 136.5,41.5C 135.167,41.5 133.833,41.5 132.5,41.5C 131.167,41.5 129.833,41.5 128.5,41.5C 128.5,35.8333 128.5,30.1667 128.5,24.5C 129.833,24.5 131.167,24.5 132.5,24.5C 132.5,23.1667 132.5,21.8333 132.5,20.5C 139.5,20.5 146.5,20.5 153.5,20.5C 153.5,21.8333 153.5,23.1667 153.5,24.5 Z"/></g>
<g><path style="opacity:0.925" fill="#cacaca" d="M 199.5,24.5 C 202.167,24.5 204.833,24.5 207.5,24.5C 207.5,25.8333 207.5,27.1667 207.5,28.5C 206.167,28.5 204.833,28.5 203.5,28.5C 203.5,29.8333 203.5,31.1667 203.5,32.5C 202.167,32.5 200.833,32.5 199.5,32.5C 199.5,33.8333 199.5,35.1667 199.5,36.5C 200.833,36.5 202.167,36.5 203.5,36.5C 203.5,38.1667 203.5,39.8333 203.5,41.5C 200.833,41.5 198.167,41.5 195.5,41.5C 195.5,37.1667 195.5,32.8333 195.5,28.5C 196.833,28.5 198.167,28.5 199.5,28.5C 199.5,27.1667 199.5,25.8333 199.5,24.5 Z"/></g>
<g><path style="opacity:0.992" fill="#818181" d="M 374.5,24.5 C 374.5,30.1667 374.5,35.8333 374.5,41.5C 373.167,41.5 371.833,41.5 370.5,41.5C 369.167,41.5 367.833,41.5 366.5,41.5C 366.5,35.8333 366.5,30.1667 366.5,24.5C 369.167,24.5 371.833,24.5 374.5,24.5 Z"/></g>
<g><path style="opacity:0.929" fill="#d6d6d6" d="M 374.5,24.5 C 378.5,24.5 382.5,24.5 386.5,24.5C 386.5,30.1667 386.5,35.8333 386.5,41.5C 385.167,41.5 383.833,41.5 382.5,41.5C 382.5,42.8333 382.5,44.1667 382.5,45.5C 381.167,45.5 379.833,45.5 378.5,45.5C 378.5,44.1667 378.5,42.8333 378.5,41.5C 377.167,41.5 375.833,41.5 374.5,41.5C 374.5,35.8333 374.5,30.1667 374.5,24.5 Z"/></g>
<g><path style="opacity:0.957" fill="#b6b6b6" d="M 903.5,32.5 C 903.5,31.1667 903.5,29.8333 903.5,28.5C 906.167,28.5 908.833,28.5 911.5,28.5C 911.5,29.8333 911.5,31.1667 911.5,32.5C 908.833,32.5 906.167,32.5 903.5,32.5 Z"/></g>
<g><path style="opacity:0.945" fill="#f4c4bf" d="M 28.5,28.5 C 28.5,32.8333 28.5,37.1667 28.5,41.5C 27.1667,41.5 25.8333,41.5 24.5,41.5C 24.5,37.1667 24.5,32.8333 24.5,28.5C 25.8333,28.5 27.1667,28.5 28.5,28.5 Z"/></g>
<g><path style="opacity:0.965" fill="#f0a9a3" d="M 41.5,28.5 C 42.8333,28.5 44.1667,28.5 45.5,28.5C 45.5,32.8333 45.5,37.1667 45.5,41.5C 44.1667,41.5 42.8333,41.5 41.5,41.5C 41.5,37.1667 41.5,32.8333 41.5,28.5 Z"/></g>
<g><path style="opacity:0.988" fill="#f3c772" d="M 57.5,28.5 C 57.5,32.8333 57.5,37.1667 57.5,41.5C 56.1667,41.5 54.8333,41.5 53.5,41.5C 53.5,37.1667 53.5,32.8333 53.5,28.5C 54.8333,28.5 56.1667,28.5 57.5,28.5 Z"/></g>
<g><path style="opacity:0.988" fill="#f3c56f" d="M 66.5,28.5 C 67.8333,28.5 69.1667,28.5 70.5,28.5C 70.5,32.8333 70.5,37.1667 70.5,41.5C 69.1667,41.5 67.8333,41.5 66.5,41.5C 66.5,37.1667 66.5,32.8333 66.5,28.5 Z"/></g>
<g><path style="opacity:0.961" fill="#aadca2" d="M 82.5,28.5 C 82.5,32.8333 82.5,37.1667 82.5,41.5C 81.1667,41.5 79.8333,41.5 78.5,41.5C 78.5,37.1667 78.5,32.8333 78.5,28.5C 79.8333,28.5 81.1667,28.5 82.5,28.5 Z"/></g>
<g><path style="opacity:0.949" fill="#bfe5b9" d="M 95.5,28.5 C 96.8333,28.5 98.1667,28.5 99.5,28.5C 99.5,32.8333 99.5,37.1667 99.5,41.5C 98.1667,41.5 96.8333,41.5 95.5,41.5C 95.5,37.1667 95.5,32.8333 95.5,28.5 Z"/></g>
<g><path style="opacity:1" fill="#9e9e9e" d="M 616.5,32.5 C 619.167,32.5 621.833,32.5 624.5,32.5C 624.5,35.5 624.5,38.5 624.5,41.5C 621.833,41.5 619.167,41.5 616.5,41.5C 616.5,38.5 616.5,35.5 616.5,32.5 Z"/></g>
<g><path style="opacity:1" fill="#575757" d="M 640.5,32.5 C 641.674,33.5137 642.34,34.847 642.5,36.5C 641.9,37.9002 640.9,38.9002 639.5,39.5C 639.5,37.5 639.5,35.5 639.5,33.5C 640.167,33.5 640.5,33.1667 640.5,32.5 Z"/></g>
<g><path style="opacity:0.941" fill="#c8c8c8" d="M 1191.5,28.5 C 1192.83,28.5 1194.17,28.5 1195.5,28.5C 1195.5,34.1667 1195.5,39.8333 1195.5,45.5C 1188.5,45.5 1181.5,45.5 1174.5,45.5C 1174.5,39.8333 1174.5,34.1667 1174.5,28.5C 1175.83,28.5 1177.17,28.5 1178.5,28.5C 1178.5,27.1667 1178.5,25.8333 1178.5,24.5C 1179.83,24.5 1181.17,24.5 1182.5,24.5C 1182.5,23.1667 1182.5,21.8333 1182.5,20.5C 1185.5,20.5 1188.5,20.5 1191.5,20.5C 1191.5,23.1667 1191.5,25.8333 1191.5,28.5 Z"/></g>
<g><path style="opacity:0.902" fill="#fcfcfc" d="M 1191.5,28.5 C 1191.5,32.8333 1191.5,37.1667 1191.5,41.5C 1187.17,41.5 1182.83,41.5 1178.5,41.5C 1178.5,38.5 1178.5,35.5 1178.5,32.5C 1179.83,32.5 1181.17,32.5 1182.5,32.5C 1182.5,33.8333 1182.5,35.1667 1182.5,36.5C 1183.83,36.5 1185.17,36.5 1186.5,36.5C 1186.5,33.8333 1186.5,31.1667 1186.5,28.5C 1188.17,28.5 1189.83,28.5 1191.5,28.5 Z"/></g>
<g><path style="opacity:0.965" fill="#b6b6b6" d="M 1236.5,24.5 C 1238.17,24.5 1239.83,24.5 1241.5,24.5C 1241.5,27.1667 1241.5,29.8333 1241.5,32.5C 1244.17,32.5 1246.83,32.5 1249.5,32.5C 1249.5,33.8333 1249.5,35.1667 1249.5,36.5C 1243.83,36.5 1238.17,36.5 1232.5,36.5C 1232.5,35.1667 1232.5,33.8333 1232.5,32.5C 1233.83,32.5 1235.17,32.5 1236.5,32.5C 1236.5,29.8333 1236.5,27.1667 1236.5,24.5 Z"/></g>
<g><path style="opacity:0.902" fill="#fefffe" d="M 1291.5,32.5 C 1295.5,32.5 1299.5,32.5 1303.5,32.5C 1303.5,35.5 1303.5,38.5 1303.5,41.5C 1299.5,41.5 1295.5,41.5 1291.5,41.5C 1291.5,38.5 1291.5,35.5 1291.5,32.5 Z"/></g>
<g><path style="opacity:1" fill="#3b3b3b" d="M 650.5,38.5 C 650.259,36.1016 650.926,34.1016 652.5,32.5C 653.792,30.7451 654.792,28.7451 655.5,26.5C 657.08,30.7243 657.58,35.0576 657,39.5C 655.866,34.203 655.032,34.203 654.5,39.5C 653.041,39.5674 651.708,39.2341 650.5,38.5 Z"/></g>
<g><path style="opacity:1" fill="#636363" d="M 689.5,32.5 C 690.797,34.6934 690.797,37.0268 689.5,39.5C 688.817,39.1373 688.15,38.8039 687.5,38.5C 687.259,36.1016 687.926,34.1016 689.5,32.5 Z"/></g>
<g><path style="opacity:0.914" fill="#d8d8d8" d="M 903.5,32.5 C 903.5,33.8333 903.5,35.1667 903.5,36.5C 907.833,36.5 912.167,36.5 916.5,36.5C 916.5,38.1667 916.5,39.8333 916.5,41.5C 914.833,41.5 913.167,41.5 911.5,41.5C 911.5,42.8333 911.5,44.1667 911.5,45.5C 908.833,45.5 906.167,45.5 903.5,45.5C 903.5,44.1667 903.5,42.8333 903.5,41.5C 902.167,41.5 900.833,41.5 899.5,41.5C 899.5,38.5 899.5,35.5 899.5,32.5C 900.833,32.5 902.167,32.5 903.5,32.5 Z"/></g>
<g><path style="opacity:1" fill="#333333" d="M 676.5,26.5 C 678.792,26.2436 680.959,26.5769 683,27.5C 683.667,31.1667 683.667,34.8333 683,38.5C 680.91,39.7908 679.576,39.1242 679,36.5C 678.818,33.7737 678.318,31.1071 677.5,28.5C 674.65,32.1398 674.983,35.4732 678.5,38.5C 677.132,39.5937 675.965,39.2603 675,37.5C 674.667,38.1667 674.333,38.8333 674,39.5C 673.779,34.9091 674.612,30.5758 676.5,26.5 Z"/></g>
<g><path style="opacity:1" fill="#ececec" d="M 680.5,28.5 C 682.026,29.4919 682.693,30.9919 682.5,33C 681.592,38.9028 680.592,38.9028 679.5,33C 680.148,31.5603 680.481,30.0603 680.5,28.5 Z"/></g>
<g><path style="opacity:0.941" fill="#f5ccc7" d="M 28.5,41.5 C 32.8333,41.5 37.1667,41.5 41.5,41.5C 41.5,42.8333 41.5,44.1667 41.5,45.5C 37.1667,45.5 32.8333,45.5 28.5,45.5C 28.5,44.1667 28.5,42.8333 28.5,41.5 Z"/></g>
<g><path style="opacity:0.937" fill="#f8e3b9" d="M 57.5,41.5 C 60.5,41.5 63.5,41.5 66.5,41.5C 66.5,42.8333 66.5,44.1667 66.5,45.5C 63.5,45.5 60.5,45.5 57.5,45.5C 57.5,44.1667 57.5,42.8333 57.5,41.5 Z"/></g>
<g><path style="opacity:0.941" fill="#c9e9c4" d="M 82.5,41.5 C 86.8333,41.5 91.1667,41.5 95.5,41.5C 95.5,42.8333 95.5,44.1667 95.5,45.5C 91.1667,45.5 86.8333,45.5 82.5,45.5C 82.5,44.1667 82.5,42.8333 82.5,41.5 Z"/></g>
<g><path style="opacity:0.941" fill="#c0c0c0" d="M 141.5,28.5 C 141.5,32.8333 141.5,37.1667 141.5,41.5C 145.5,41.5 149.5,41.5 153.5,41.5C 153.5,37.1667 153.5,32.8333 153.5,28.5C 153.5,27.1667 153.5,25.8333 153.5,24.5C 154.833,24.5 156.167,24.5 157.5,24.5C 157.5,31.5 157.5,38.5 157.5,45.5C 149.167,45.5 140.833,45.5 132.5,45.5C 132.5,44.1667 132.5,42.8333 132.5,41.5C 133.833,41.5 135.167,41.5 136.5,41.5C 136.5,35.8333 136.5,30.1667 136.5,24.5C 138.167,24.5 139.833,24.5 141.5,24.5C 141.5,25.8333 141.5,27.1667 141.5,28.5 Z"/></g>
<g><path style="opacity:0.902" fill="#fefffe" d="M 141.5,28.5 C 145.5,28.5 149.5,28.5 153.5,28.5C 153.5,32.8333 153.5,37.1667 153.5,41.5C 149.5,41.5 145.5,41.5 141.5,41.5C 141.5,37.1667 141.5,32.8333 141.5,28.5 Z"/></g>
<g><path style="opacity:0.963" fill="#a4a4a4" d="M 370.5,41.5 C 371.833,41.5 373.167,41.5 374.5,41.5C 375.833,41.5 377.167,41.5 378.5,41.5C 378.5,42.8333 378.5,44.1667 378.5,45.5C 375.833,45.5 373.167,45.5 370.5,45.5C 370.5,44.1667 370.5,42.8333 370.5,41.5 Z"/></g>
</svg>
